# xmcd
#
# Track frame offsets: 
#        150
#        17027
#        37325
#        52098
#        71959
#        89960
#        104925
#        117460
#        131946
#        149992
#        169385
#        187835
#        202986
#
# Disc length: 2979 seconds
#
# Revision: 0
# Processed by: cddbd v1.5.2PL0 Copyright (c) Steve Scherf et al.
# Submitted via: ExactAudioCopy v0.95b3
#
DISCID=e40ba10d
DTITLE=Smooth Kentucky - A Few More Miles
DYEAR=2010
DGENRE=Bluegrass
TTITLE0=Sweet Amanda
TTITLE1=Slipstream Abilene
TTITLE2=Banjo Bend
TTITLE3=I Don't Mind
TTITLE4=Just Wastin' Time
TTITLE5=Get Yourself in Line
TTITLE6=Skippin' Lucy
TTITLE7=The Way
TTITLE8=Leavin' This Old Town
TTITLE9=Love in the Mail
TTITLE10=She Belongs to Me
TTITLE11=Won't Stop Looking
TTITLE12=Halfway Home
EXTD=
EXTT0=
EXTT1=
EXTT2=
EXTT3=
EXTT4=
EXTT5=
EXTT6=
EXTT7=
EXTT8=
EXTT9=
EXTT10=
EXTT11=
EXTT12=
PLAYORDER=
